<svg width="1920" height="400" xmlns="http://www.w3.org/2000/svg">
  <defs>
    <linearGradient id="spaceGradient" x1="0%" y1="0%" x2="100%" y2="100%">
      <stop offset="0%" style="stop-color:#0f172a;stop-opacity:1" />
      <stop offset="50%" style="stop-color:#1e293b;stop-opacity:1" />
      <stop offset="100%" style="stop-color:#0f172a;stop-opacity:1" />
    </linearGradient>
  </defs>
  <rect width="1920" height="400" fill="url(#spaceGradient)" />
  <circle cx="200" cy="80" r="3" fill="#ffffff" opacity="0.8"/>
  <circle cx="400" cy="150" r="2" fill="#ffffff" opacity="0.6"/>
  <circle cx="600" cy="100" r="4" fill="#ffffff" opacity="0.7"/>
  <circle cx="800" cy="200" r="2" fill="#ffffff" opacity="0.5"/>
  <circle cx="1000" cy="120" r="3" fill="#ffffff" opacity="0.8"/>
  <circle cx="1200" cy="180" r="2" fill="#ffffff" opacity="0.6"/>
  <circle cx="1400" cy="90" r="4" fill="#ffffff" opacity="0.7"/>
  <circle cx="1600" cy="160" r="2" fill="#ffffff" opacity="0.5"/>
  <circle cx="1800" cy="110" r="3" fill="#ffffff" opacity="0.8"/>
  <circle cx="300" cy="300" r="2" fill="#ffffff" opacity="0.4"/>
  <circle cx="500" cy="350" r="3" fill="#ffffff" opacity="0.6"/>
  <circle cx="700" cy="320" r="2" fill="#ffffff" opacity="0.5"/>
  <circle cx="900" cy="380" r="4" fill="#ffffff" opacity="0.7"/>
  <circle cx="1100" cy="340" r="2" fill="#ffffff" opacity="0.4"/>
  <circle cx="1300" cy="390" r="3" fill="#ffffff" opacity="0.6"/>
  <circle cx="1500" cy="310" r="2" fill="#ffffff" opacity="0.5"/>
  <circle cx="1700" cy="360" r="4" fill="#ffffff" opacity="0.7"/>
  <text x="960" y="220" font-family="Arial, sans-serif" font-size="48" font-weight="bold" fill="#ffffff" text-anchor="middle" opacity="0.9">探索宇宙的无限可能</text>
  <text x="960" y="280" font-family="Arial, sans-serif" font-size="24" fill="#94a3b8" text-anchor="middle">请替换为您自己的图片：/public/images/space.jpg</text>
</svg>
